# xmcd CD database file
#
# Track frame offsets:
#	150
#	10756
#	85980
#	126334
#	170837
#	211345
#	252295
#	282510
#
# Disc length: 4073 seconds
#
# Revision: 0
# Processed by: cddbd v1.5.1PL2 Copyright (c) Steve Scherf et al.
# Submitted via: CDex 1.50Beta7
#
DISCID=720fe708
DTITLE=MIND BODY SPIRIT - HEALTHY LIVING
DYEAR=2004
DGENRE=New Age
TTITLE0=SEA OF CH'L
TTITLE1=OM
TTITLE2=HEALING WATERS
TTITLE3=BREATH OF CH'L
TTITLE4=SERENITY
TTITLE5=MEDITATIONS
TTITLE6=HIGH ON WING
TTITLE7=REBIRTH
EXTD=YEAR: 2004
EXTT0=
EXTT1=
EXTT2=
EXTT3=
EXTT4=
EXTT5=
EXTT6=
EXTT7=
PLAYORDER=
